<svg width="22" height="20" viewBox="0 0 22 20" fill="none" xmlns="http://www.w3.org/2000/svg">
<path id="Vector" d="M16.5 13.5C16.5 14.61 15.61 15.5 14.5 15.5C13.39 15.5 12.5 14.61 12.5 13.5C12.5 12.39 13.4 11.5 14.5 11.5C15.6 11.5 16.5 12.4 16.5 13.5ZM7.5 11.5C6.4 11.5 5.5 12.4 5.5 13.5C5.5 14.6 6.4 15.5 7.5 15.5C8.6 15.5 9.5 14.61 9.5 13.5C9.5 12.39 8.61 11.5 7.5 11.5ZM22 13V16C22 16.55 21.55 17 21 17H20V18C20 19.11 19.11 20 18 20H4C3.46957 20 2.96086 19.7893 2.58579 19.4142C2.21071 19.0391 2 18.5304 2 18V17H1C0.45 17 0 16.55 0 16V13C0 12.45 0.45 12 1 12H2C2 8.13 5.13 5 9 5H10V3.73C9.4 3.39 9 2.74 9 2C9 0.9 9.9 0 11 0C12.1 0 13 0.9 13 2C13 2.74 12.6 3.39 12 3.73V5H13C16.87 5 20 8.13 20 12H21C21.55 12 22 12.45 22 13ZM20 14H18V12C18 9.24 15.76 7 13 7H9C6.24 7 4 9.24 4 12V14H2V15H4V18H18V15H20V14Z" fill="#1F1F1F"/>
</svg>
